<svg width="150" height="150" viewBox="0 0 150 150" fill="none" xmlns="http://www.w3.org/2000/svg">
<path d="M73.365 58.44V65.94H70.425V61.11H64.02V78.33H67.365V81H57.735V78.33H61.08V61.11H54.69V65.94H51.75V58.44H73.365Z" fill="black"/>
<path d="M85.08 92V89.33H86.865C88.565 89.33 90.06 88.965 91.35 88.235C92.65 87.495 93.66 86.475 94.38 85.175C95.11 83.865 95.475 82.36 95.475 80.66C95.475 78.97 95.11 77.485 94.38 76.205C93.66 74.915 92.65 73.91 91.35 73.19C90.06 72.47 88.565 72.11 86.865 72.11H85.08V69.44H86.865C89.185 69.44 91.225 69.92 92.985 70.88C94.745 71.83 96.115 73.15 97.095 74.84C98.085 76.52 98.58 78.46 98.58 80.66C98.58 82.89 98.085 84.86 97.095 86.57C96.115 88.27 94.745 89.6 92.985 90.56C91.225 91.52 89.185 92 86.865 92H85.08ZM75.84 92V89.33H79.185V72.11H75.84V69.44H86.01V72.11H82.125V89.33H86.01V92H75.84Z" fill="black"/>
<path d="M75.2312 0H74.7758C65.0294 0 56.5022 6.4599 53.7626 15.8134C51.2052 24.5294 46.4966 32.7409 39.616 39.6142C32.7354 46.4875 24.5235 51.2028 15.8072 53.7601C6.4602 56.4996 0 65.0264 0 74.7723V75.2277C0 84.9736 6.4602 93.5004 15.8072 96.2399C24.5235 98.7972 32.7424 103.513 39.616 110.386C46.4896 117.259 51.2052 125.478 53.7626 134.194C56.5022 143.547 65.0294 150 74.7758 150H75.2312C84.9776 150 93.5048 143.54 96.2444 134.187C98.8018 125.471 103.51 117.252 110.384 110.379C117.258 103.506 125.476 98.7902 134.186 96.2399C143.54 93.5004 150 84.9666 150 75.2207V74.7723C150 65.0264 143.54 56.4996 134.186 53.7531C125.469 51.1958 117.258 46.4875 110.384 39.6142C103.51 32.7409 98.7948 24.5224 96.2444 15.8134C93.5048 6.4599 84.9776 0 75.2312 0ZM122.982 74.8143V75.1857C122.982 81.4073 118.841 86.8373 112.871 88.5889C107.294 90.2214 102.039 93.2412 97.6457 97.6342C93.2455 102.034 90.2326 107.289 88.6001 112.859C86.8484 118.829 81.4252 122.969 75.1962 122.969H74.8248C68.6029 122.969 63.1726 118.829 61.421 112.859C59.7884 107.282 56.7685 102.027 52.3753 97.6342C47.9821 93.2412 42.72 90.2214 37.1427 88.5889C31.1729 86.8373 27.032 81.4144 27.032 75.1927V74.8143C27.032 68.5926 31.1729 63.1697 37.1427 61.4181C42.72 59.7856 47.9751 56.7658 52.3753 52.3728C56.7755 47.9728 59.7884 42.718 61.421 37.1479C63.1726 31.1715 68.6029 27.0377 74.8248 27.0377H75.1962C81.4252 27.0377 86.8484 31.1785 88.6001 37.1549C90.2326 42.732 93.2455 47.9868 97.6457 52.3798C102.046 56.7799 107.301 59.7926 112.871 61.4251C118.841 63.1767 122.982 68.5997 122.982 74.8283V74.8143Z" fill="url(#paint0_linear_73_1379)"/>
<defs>
<linearGradient id="paint0_linear_73_1379" x1="41.007" y1="133.874" x2="108.993" y2="16.1136" gradientUnits="userSpaceOnUse">
<stop stop-color="#155EEF"/>
<stop offset="1" stop-color="#2E90FA"/>
</linearGradient>
</defs>
</svg>
