<svg width="64" height="64" viewBox="0 0 64 64" fill="none" xmlns="http://www.w3.org/2000/svg">
<path d="M32.0987 0H31.9043C27.7459 0 24.1076 2.75622 22.9387 6.74707C21.8475 10.4659 19.8386 13.9695 16.9028 16.9021C13.9671 19.8346 10.4634 21.8465 6.74439 22.9376C2.75635 24.1065 0 27.7446 0 31.9028V32.0972C0 36.2554 2.75635 39.8935 6.74439 41.0624C10.4634 42.1535 13.9701 44.1654 16.9028 47.098C19.8356 50.0306 21.8475 53.5371 22.9387 57.2559C24.1076 61.2468 27.7459 64 31.9043 64H32.0987C36.2571 64 39.8954 61.2438 41.0643 57.2529C42.1555 53.5341 44.1644 50.0276 47.0972 47.095C50.0299 44.1624 53.5366 42.1505 57.2526 41.0624C61.2436 39.8935 64 36.2524 64 32.0942V31.9028C64 27.7446 61.2436 24.1065 57.2526 22.9347C53.5336 21.8435 50.0299 19.8346 47.0972 16.9021C44.1644 13.9695 42.1525 10.4629 41.0643 6.74707C39.8954 2.75622 36.2571 0 32.0987 0ZM52.4723 31.9208V32.0792C52.4723 34.7338 50.7055 37.0506 48.1584 37.7979C45.7788 38.4945 43.5366 39.7829 41.6622 41.6572C39.7848 43.5346 38.4993 45.7766 37.8027 48.1532C37.0553 50.7002 34.7414 52.4669 32.0837 52.4669H31.9253C29.2706 52.4669 26.9537 50.7002 26.2063 48.1532C25.5097 45.7736 24.2212 43.5316 22.3468 41.6572C20.4723 39.7829 18.2272 38.4945 15.8475 37.7979C13.3004 37.0506 11.5336 34.7368 11.5336 32.0822V31.9208C11.5336 29.2662 13.3004 26.9524 15.8475 26.2051C18.2272 25.5085 20.4694 24.2201 22.3468 22.3457C24.2242 20.4684 25.5097 18.2264 26.2063 15.8498C26.9537 13.2998 29.2706 11.5361 31.9253 11.5361H32.0837C34.7414 11.5361 37.0553 13.3028 37.8027 15.8528C38.4993 18.2323 39.7848 20.4744 41.6622 22.3487C43.5396 24.2261 45.7818 25.5115 48.1584 26.208C50.7055 26.9554 52.4723 29.2692 52.4723 31.9268V31.9208Z" fill="url(#paint0_linear_30_13630)"/>
<defs>
<linearGradient id="paint0_linear_30_13630" x1="17.4963" y1="57.1198" x2="46.5037" y2="6.87514" gradientUnits="userSpaceOnUse">
<stop stop-color="#155EEF"/>
<stop offset="1" stop-color="#2E90FA"/>
</linearGradient>
</defs>
</svg>
